<svg width="1058" height="189" xmlns="http://www.w3.org/2000/svg" xmlns:xlink="http://www.w3.org/1999/xlink" overflow="hidden"><defs><clipPath id="clip0"><rect x="0" y="0" width="1058" height="189"/></clipPath></defs><g clip-path="url(#clip0)"><rect x="0" y="0" width="1058" height="189.06" fill="#FFFFFF"/><rect x="34.5" y="25.508" width="142" height="139.044" stroke="#000000" stroke-width="0.999685" stroke-linejoin="round" stroke-miterlimit="10" fill="#FFC000"/><text font-family="Calibri,Calibri_MSFontService,sans-serif" font-weight="400" font-size="24" transform="matrix(1 0 0 1.00032 87.3895 102)">gpg</text><rect x="871.5" y="25.508" width="154" height="139.044" stroke="#000000" stroke-width="0.999685" stroke-linejoin="round" stroke-miterlimit="10" fill="#00B0F0"/><text fill="#FFFFFF" font-family="Calibri,Calibri_MSFontService,sans-serif" font-weight="700" font-size="24" transform="matrix(1 0 0 1.00032 904.796 102)">SignPath</text><path d="M187.996 92.863 295.201 92.863 295.201 95.1964 187.996 95.1963ZM189.329 100.696 176 94.0296 189.329 87.363ZM293.868 87.363 307.197 94.0297 293.868 100.696Z"/><text font-family="Calibri,Calibri_MSFontService,sans-serif" font-weight="400" font-size="18.6667" transform="matrix(1 0 0 1.00032 775.393 123)">HTTPS/</text><text font-family="Calibri,Calibri_MSFontService,sans-serif" font-weight="400" font-size="18.6667" transform="matrix(1 0 0 1.00032 784.837 146)">REST</text><rect x="307.5" y="25.508" width="154" height="139.044" stroke="#000000" stroke-width="0.999685" stroke-linejoin="round" stroke-miterlimit="10" fill="#FFC000"/><text font-family="Calibri,Calibri_MSFontService,sans-serif" font-weight="400" font-size="24" transform="matrix(1 0 0 1.00032 349.991 88)">gnupg</text><text font-family="Calibri,Calibri_MSFontService,sans-serif" font-weight="400" font-size="24" transform="matrix(1 0 0 1.00032 410.639 88)">-</text><text font-family="Calibri,Calibri_MSFontService,sans-serif" font-weight="400" font-size="24" transform="matrix(1 0 0 1.00032 330.857 117)">pkcs11</text><text font-family="Calibri,Calibri_MSFontService,sans-serif" font-weight="400" font-size="24" transform="matrix(1 0 0 1.00032 397.609 117)">-</text><text font-family="Calibri,Calibri_MSFontService,sans-serif" font-weight="400" font-size="24" transform="matrix(1 0 0 1.00032 404.94 117)">scd</text><path d="M736.996 92.863 859.518 92.863 859.518 95.1964 736.996 95.1963ZM738.329 100.696 725 94.0296 738.329 87.363ZM858.185 87.363 871.514 94.0297 858.185 100.696Z"/><rect x="572.5" y="25.508" width="153" height="139.044" stroke="#000000" stroke-width="0.999685" stroke-linejoin="round" stroke-miterlimit="10" fill="#00B0F0"/><text fill="#FFFFFF" font-family="Calibri,Calibri_MSFontService,sans-serif" font-weight="700" font-size="24" transform="matrix(1 0 0 1.00032 589.658 88)">libSignPath</text><text fill="#FFFFFF" font-family="Calibri,Calibri_MSFontService,sans-serif" font-weight="700" font-size="24" transform="matrix(1 0 0 1.00032 700.603 88)">.</text><text fill="#FFFFFF" font-family="Calibri,Calibri_MSFontService,sans-serif" font-weight="700" font-size="24" transform="matrix(1 0 0 1.00032 592.177 117)">Cryptoki.so</text><path d="M472.996 92.863 560.11 92.863 560.11 95.1964 472.996 95.1963ZM474.329 100.696 461 94.0296 474.329 87.363ZM558.777 87.363 572.107 94.0297 558.777 100.696Z"/><text font-family="Calibri,Calibri_MSFontService,sans-serif" font-weight="400" font-size="18.6667" transform="matrix(1 0 0 1.00032 223.634 116)">Inter</text><text font-family="Calibri,Calibri_MSFontService,sans-serif" font-weight="400" font-size="18.6667" transform="matrix(1 0 0 1.00032 212.931 139)">process</text><text font-family="Calibri,Calibri_MSFontService,sans-serif" font-weight="400" font-size="18.6667" transform="matrix(1 0 0 1.00032 218.189 161)">comm</text><text font-family="Calibri,Calibri_MSFontService,sans-serif" font-weight="400" font-size="18.6667" transform="matrix(1 0 0 1.00032 488.297 128)">PKCS #11</text></g></svg>