<svg width="1262" height="454" xmlns="http://www.w3.org/2000/svg" xmlns:xlink="http://www.w3.org/1999/xlink" overflow="hidden"><g><rect x="0" y="0" width="1262" height="453.619" fill="#FFFFFF"/><rect x="0" y="0" width="1261" height="453.619" fill="#FFFFFF"/><rect x="18.5" y="15.5211" width="761" height="423.578" stroke="#000000" stroke-width="0.999736" stroke-linejoin="round" stroke-miterlimit="10" fill="#F2F2F2"/><text font-family="Calibri,Calibri_MSFontService,sans-serif" font-weight="700" font-size="24.0265" transform="matrix(1 0 0 1.00137 28.0949 42)">Build Node or PC</text><rect x="49.5" y="79.6087" width="192" height="342.467" stroke="#000000" stroke-width="0.999736" stroke-linejoin="round" stroke-miterlimit="10" fill="#FFC000"/><text font-family="Calibri,Calibri_MSFontService,sans-serif" font-weight="400" font-size="24.0265" transform="matrix(1 0 0 1.00137 87.0076 106)">Signing Tool</text><rect x="274.5" y="79.6087" width="185" height="342.467" stroke="#000000" stroke-width="0.999736" stroke-linejoin="round" stroke-miterlimit="10" fill="#FFC000"/><text font-family="Calibri,Calibri_MSFontService,sans-serif" font-weight="400" font-size="24.0265" transform="matrix(1 0 0 1.00137 301.303 106)">API or Engine</text><rect x="492.5" y="79.6087" width="253" height="342.467" stroke="#000000" stroke-width="0.999736" stroke-linejoin="round" stroke-miterlimit="10" fill="#FFC000"/><text font-family="Calibri,Calibri_MSFontService,sans-serif" font-weight="400" font-size="24.0265" transform="matrix(1 0 0 1.00137 542.127 106)">Crypto Provider</text><rect x="852.5" y="79.6087" width="229" height="306.418" stroke="#000000" stroke-width="0.999736" stroke-linejoin="round" stroke-miterlimit="10" fill="#00B0F0"/><text fill="#FFFFFF" font-family="Calibri,Calibri_MSFontService,sans-serif" font-weight="700" font-size="24.0265" transform="matrix(1 0 0 1.00137 923.354 106)">SignPath</text><rect x="1123.5" y="79.6087" width="122" height="306.418" stroke="#000000" stroke-width="0.999736" stroke-linejoin="round" stroke-miterlimit="10" fill="#FFC000"/><text font-family="Calibri,Calibri_MSFontService,sans-serif" font-weight="700" font-size="24.0265" transform="matrix(1 0 0 1.00137 1160.22 106)">HSM</text><path d="M241.5 163.39 261.995 163.39 261.995 164.057 241.5 164.057ZM260.662 157.05 273.991 163.724 260.662 170.398Z"/><path d="M459.5 163.39 479.995 163.39 479.995 164.057 459.5 164.057ZM478.662 157.05 491.992 163.724 478.662 170.398Z"/><path d="M745.5 163.39 840.374 163.39 840.374 164.057 745.5 164.057ZM839.041 157.05 852.37 163.724 839.041 170.398Z"/><path d="M1081.5 163.39 1111.07 163.39 1111.07 164.057 1081.5 164.057ZM1109.73 157.05 1123.06 163.724 1109.73 170.398Z"/><path d="M1.0765e-06-0.333245 20.4946-0.333179 20.4946 0.333312-1.0765e-06 0.333245ZM19.1617-6.66484 32.4915 0.000104959 19.1616 6.66497Z" transform="matrix(-1 0 0 1.00137 273.991 192.763)"/><path d="M1.0765e-06-0.333245 20.4946-0.333179 20.4946 0.333312-1.0765e-06 0.333245ZM19.1617-6.66484 32.4915 0.000104959 19.1616 6.66497Z" transform="matrix(-1 0 0 1.00137 491.992 192.763)"/><path d="M3.27285e-07-0.333245 94.8736-0.333152 94.8736 0.333338-3.27285e-07 0.333245ZM93.5406-6.66481 106.87 0.000104959 93.5406 6.665Z" transform="matrix(-1 0 0 1.00137 852.37 191.762)"/><path d="M8.41529e-07-0.333245 29.567-0.333171 29.567 0.33332-8.41529e-07 0.333245ZM28.234-6.66483 41.5638 0.000104959 28.234 6.66498Z" transform="matrix(-1 0 0 1.00137 1123.06 191.762)"/><text font-family="Calibri,Calibri_MSFontService,sans-serif" font-weight="400" font-size="18.6872" transform="matrix(1 0 0 1.00137 65.6286 166)">calculate hash digest</text><text font-family="Calibri,Calibri_MSFontService,sans-serif" font-weight="400" font-size="18.6872" transform="matrix(1 0 0 1.00137 291.79 184)">call crypto provider</text><text font-family="Calibri,Calibri_MSFontService,sans-serif" font-weight="400" font-size="18.6872" transform="matrix(1 0 0 1.00137 507.042 173)">call SignPath with credentials,</text><text font-family="Calibri,Calibri_MSFontService,sans-serif" font-weight="400" font-size="18.6872" transform="matrix(1 0 0 1.00137 537.447 196)">project, signing policy</text><text fill="#FFFFFF" font-family="Arial,Arial_MSFontService,sans-serif" font-weight="400" font-size="18.6872" transform="matrix(1 0 0 1.00137 861.753 151)">•</text><text fill="#FFFFFF" font-family="Calibri,Calibri_MSFontService,sans-serif" font-weight="400" font-size="18.6872" transform="matrix(1 0 0 1.00137 880.948 151)">verify permissions</text><text fill="#FFFFFF" font-family="Arial,Arial_MSFontService,sans-serif" font-weight="400" font-size="18.6872" transform="matrix(1 0 0 1.00137 861.753 174)">•</text><text fill="#FFFFFF" font-family="Calibri,Calibri_MSFontService,sans-serif" font-weight="400" font-size="18.6872" transform="matrix(1 0 0 1.00137 880.948 174)">select key/certificate</text><text fill="#FFFFFF" font-family="Arial,Arial_MSFontService,sans-serif" font-weight="400" font-size="18.6872" transform="matrix(1 0 0 1.00137 861.753 196)">•</text><text fill="#FFFFFF" font-family="Calibri,Calibri_MSFontService,sans-serif" font-weight="400" font-size="18.6872" transform="matrix(1 0 0 1.00137 880.948 196)">call HSM</text><text fill="#FFFFFF" font-family="Arial,Arial_MSFontService,sans-serif" font-weight="400" font-size="18.6872" transform="matrix(1 0 0 1.00137 861.753 219)">•</text><text fill="#FFFFFF" font-family="Calibri,Calibri_MSFontService,sans-serif" font-weight="400" font-size="18.6872" transform="matrix(1 0 0 1.00137 880.948 219)">audit signing</text><text font-family="Calibri,Calibri_MSFontService,sans-serif" font-weight="400" font-size="18.6872" transform="matrix(1 0 0 1.00137 1148.72 174)">sign hash</text><text font-family="Calibri,Calibri_MSFontService,sans-serif" font-weight="400" font-size="18.6872" transform="matrix(1 0 0 1.00137 1161.15 197)">digest</text><text font-family="Calibri,Calibri_MSFontService,sans-serif" font-weight="400" font-size="18.6872" transform="matrix(1 0 0 1.00137 62.9193 198)">write signature to file</text><rect x="60.5" y="248.84" width="170" height="32.0437" stroke="#000000" stroke-width="0.999736" stroke-linejoin="round" stroke-miterlimit="10" fill="#7F7F7F"/><text fill="#FFFFFF" font-family="Calibri,Calibri_MSFontService,sans-serif" font-weight="400" font-size="18.6872" transform="matrix(1 0 0 1.00137 111.869 270)">OpenSSL</text><rect x="285.5" y="248.84" width="162" height="32.0437" stroke="#000000" stroke-width="0.999736" stroke-linejoin="round" stroke-miterlimit="10" fill="#7F7F7F"/><text fill="#FFFFFF" font-family="Calibri,Calibri_MSFontService,sans-serif" font-weight="400" font-size="18.6872" transform="matrix(1 0 0 1.00137 306.635 270)">Cryptoki engine</text><rect x="508.5" y="248.84" width="221" height="32.0437" stroke="#000000" stroke-width="0.999736" stroke-linejoin="round" stroke-miterlimit="10" fill="#00B0F0"/><text fill="#FFFFFF" font-family="Calibri,Calibri_MSFontService,sans-serif" font-weight="400" font-size="18.6872" transform="matrix(1 0 0 1.00137 525.288 270)">SignPath Cryptoki library</text><rect x="60.5" y="299.909" width="170" height="32.0438" stroke="#000000" stroke-width="0.999736" stroke-linejoin="round" stroke-miterlimit="10" fill="#7F7F7F"/><text fill="#FFFFFF" font-family="Calibri,Calibri_MSFontService,sans-serif" font-weight="400" font-size="18.6872" transform="matrix(1 0 0 1.00137 98.0895 322)">SignTool.exe</text><rect x="285.5" y="334.957" width="162" height="32.0438" stroke="#000000" stroke-width="0.999736" stroke-linejoin="round" stroke-miterlimit="10" fill="#7F7F7F"/><text fill="#FFFFFF" font-family="Calibri,Calibri_MSFontService,sans-serif" font-weight="400" font-size="18.6872" transform="matrix(1 0 0 1.00137 349.374 357)">CNG</text><rect x="508.5" y="334.957" width="221" height="32.0438" stroke="#000000" stroke-width="0.999736" stroke-linejoin="round" stroke-miterlimit="10" fill="#00B0F0"/><text fill="#FFFFFF" font-family="Calibri,Calibri_MSFontService,sans-serif" font-weight="400" font-size="18.6872" transform="matrix(1 0 0 1.00137 569.716 357)">SignPath KSP</text><rect x="285.5" y="291.898" width="162" height="32.0437" stroke="#000000" stroke-width="0.999736" stroke-linejoin="round" stroke-miterlimit="10" fill="#7F7F7F"/><text fill="#FFFFFF" font-family="Calibri,Calibri_MSFontService,sans-serif" font-weight="400" font-size="18.6872" transform="matrix(1 0 0 1.00137 348.707 314)">CAPI</text><rect x="508.5" y="290.897" width="221" height="33.0451" stroke="#000000" stroke-width="0.999736" stroke-linejoin="round" stroke-miterlimit="10" fill="#00B0F0"/><text fill="#FFFFFF" font-family="Calibri,Calibri_MSFontService,sans-serif" font-weight="400" font-size="18.6872" transform="matrix(1 0 0 1.00137 569.466 313)">SignPath CSP</text><text font-family="Calibri,Calibri_MSFontService,sans-serif" font-weight="400" font-size="18.6872" transform="matrix(1 0 0 1.00137 790.762 222)">HTTPS</text><text font-family="Calibri,Calibri_MSFontService,sans-serif" font-weight="400" font-size="18.6872" transform="matrix(1 0 0 1.00137 796.621 245)">REST</text><rect x="285.5" y="377.015" width="162" height="33.0451" stroke="#000000" stroke-width="0.999736" stroke-linejoin="round" stroke-miterlimit="10" fill="#7F7F7F"/><text fill="#FFFFFF" font-family="Calibri,Calibri_MSFontService,sans-serif" font-weight="400" font-size="18.6872" transform="matrix(1 0 0 1.00137 312.736 399)">CTK extension</text><rect x="508.5" y="378.016" width="221" height="32.0438" stroke="#000000" stroke-width="0.999736" stroke-linejoin="round" stroke-miterlimit="10" fill="#00B0F0"/><text fill="#FFFFFF" font-family="Calibri,Calibri_MSFontService,sans-serif" font-weight="400" font-size="18.6872" transform="matrix(1 0 0 1.00137 569.086 399)">SignPath CTK</text><rect x="60.5" y="351.98" width="170" height="32.0437" stroke="#000000" stroke-width="0.999736" stroke-linejoin="round" stroke-miterlimit="10" fill="#7F7F7F"/><text fill="#FFFFFF" font-family="Calibri,Calibri_MSFontService,sans-serif" font-weight="400" font-size="18.6872" transform="matrix(1 0 0 1.00137 111.446 374)">codesign</text></g></svg>